<mxfile host="app.diagrams.net" agent="Mozilla/5.0 (Windows NT 10.0; Win64; x64) AppleWebKit/537.36 (KHTML, like Gecko) Chrome/126.0.0.0 Safari/537.36 Edg/126.0.0.0" version="24.7.6">
  <diagram name="Page-1" id="oDlx94fKv4Df5HG5Hu-E">
    <mxGraphModel dx="1744" dy="970" grid="1" gridSize="10" guides="1" tooltips="1" connect="1" arrows="1" fold="1" page="1" pageScale="1" pageWidth="850" pageHeight="1100" math="0" shadow="0">
      <root>
        <mxCell id="0" />
        <mxCell id="1" parent="0" />
        <mxCell id="v-BfbfLoqjQdix0PqbCj-3" value="" style="edgeStyle=orthogonalEdgeStyle;rounded=0;orthogonalLoop=1;jettySize=auto;html=1;" edge="1" parent="1" source="v-BfbfLoqjQdix0PqbCj-1" target="v-BfbfLoqjQdix0PqbCj-2">
          <mxGeometry relative="1" as="geometry" />
        </mxCell>
        <mxCell id="v-BfbfLoqjQdix0PqbCj-1" value="Start" style="ellipse;whiteSpace=wrap;html=1;" vertex="1" parent="1">
          <mxGeometry x="120" y="40" width="120" height="80" as="geometry" />
        </mxCell>
        <mxCell id="v-BfbfLoqjQdix0PqbCj-5" value="" style="edgeStyle=orthogonalEdgeStyle;rounded=0;orthogonalLoop=1;jettySize=auto;html=1;" edge="1" parent="1" source="v-BfbfLoqjQdix0PqbCj-2" target="v-BfbfLoqjQdix0PqbCj-4">
          <mxGeometry relative="1" as="geometry" />
        </mxCell>
        <mxCell id="v-BfbfLoqjQdix0PqbCj-2" value="Display Menu" style="whiteSpace=wrap;html=1;" vertex="1" parent="1">
          <mxGeometry x="120" y="160" width="120" height="60" as="geometry" />
        </mxCell>
        <mxCell id="v-BfbfLoqjQdix0PqbCj-7" value="" style="edgeStyle=orthogonalEdgeStyle;rounded=0;orthogonalLoop=1;jettySize=auto;html=1;" edge="1" parent="1" source="v-BfbfLoqjQdix0PqbCj-4" target="v-BfbfLoqjQdix0PqbCj-6">
          <mxGeometry relative="1" as="geometry" />
        </mxCell>
        <mxCell id="v-BfbfLoqjQdix0PqbCj-4" value="Get User Choice" style="shape=parallelogram;perimeter=parallelogramPerimeter;whiteSpace=wrap;html=1;fixedSize=1;" vertex="1" parent="1">
          <mxGeometry x="120" y="250" width="120" height="60" as="geometry" />
        </mxCell>
        <mxCell id="v-BfbfLoqjQdix0PqbCj-15" value="" style="edgeStyle=orthogonalEdgeStyle;rounded=0;orthogonalLoop=1;jettySize=auto;html=1;" edge="1" parent="1" source="v-BfbfLoqjQdix0PqbCj-6" target="v-BfbfLoqjQdix0PqbCj-14">
          <mxGeometry relative="1" as="geometry" />
        </mxCell>
        <mxCell id="v-BfbfLoqjQdix0PqbCj-43" value="" style="edgeStyle=orthogonalEdgeStyle;rounded=0;orthogonalLoop=1;jettySize=auto;html=1;" edge="1" parent="1" source="v-BfbfLoqjQdix0PqbCj-6" target="v-BfbfLoqjQdix0PqbCj-42">
          <mxGeometry relative="1" as="geometry" />
        </mxCell>
        <mxCell id="v-BfbfLoqjQdix0PqbCj-6" value="Choice=1" style="rhombus;whiteSpace=wrap;html=1;" vertex="1" parent="1">
          <mxGeometry x="140" y="340" width="80" height="80" as="geometry" />
        </mxCell>
        <mxCell id="v-BfbfLoqjQdix0PqbCj-17" value="" style="edgeStyle=orthogonalEdgeStyle;rounded=0;orthogonalLoop=1;jettySize=auto;html=1;" edge="1" parent="1" source="v-BfbfLoqjQdix0PqbCj-14" target="v-BfbfLoqjQdix0PqbCj-16">
          <mxGeometry relative="1" as="geometry" />
        </mxCell>
        <mxCell id="v-BfbfLoqjQdix0PqbCj-41" value="" style="edgeStyle=orthogonalEdgeStyle;rounded=0;orthogonalLoop=1;jettySize=auto;html=1;" edge="1" parent="1" source="v-BfbfLoqjQdix0PqbCj-14" target="v-BfbfLoqjQdix0PqbCj-40">
          <mxGeometry relative="1" as="geometry" />
        </mxCell>
        <mxCell id="v-BfbfLoqjQdix0PqbCj-14" value="Choice=2" style="rhombus;whiteSpace=wrap;html=1;" vertex="1" parent="1">
          <mxGeometry x="140" y="450" width="80" height="80" as="geometry" />
        </mxCell>
        <mxCell id="v-BfbfLoqjQdix0PqbCj-20" value="" style="edgeStyle=orthogonalEdgeStyle;rounded=0;orthogonalLoop=1;jettySize=auto;html=1;" edge="1" parent="1" source="v-BfbfLoqjQdix0PqbCj-16" target="v-BfbfLoqjQdix0PqbCj-19">
          <mxGeometry relative="1" as="geometry" />
        </mxCell>
        <mxCell id="v-BfbfLoqjQdix0PqbCj-39" value="" style="edgeStyle=orthogonalEdgeStyle;rounded=0;orthogonalLoop=1;jettySize=auto;html=1;" edge="1" parent="1" source="v-BfbfLoqjQdix0PqbCj-16" target="v-BfbfLoqjQdix0PqbCj-38">
          <mxGeometry relative="1" as="geometry" />
        </mxCell>
        <mxCell id="v-BfbfLoqjQdix0PqbCj-16" value="Choice=3" style="rhombus;whiteSpace=wrap;html=1;" vertex="1" parent="1">
          <mxGeometry x="140" y="550" width="80" height="80" as="geometry" />
        </mxCell>
        <mxCell id="v-BfbfLoqjQdix0PqbCj-22" value="" style="edgeStyle=orthogonalEdgeStyle;rounded=0;orthogonalLoop=1;jettySize=auto;html=1;" edge="1" parent="1" source="v-BfbfLoqjQdix0PqbCj-19" target="v-BfbfLoqjQdix0PqbCj-21">
          <mxGeometry relative="1" as="geometry" />
        </mxCell>
        <mxCell id="v-BfbfLoqjQdix0PqbCj-37" value="" style="edgeStyle=orthogonalEdgeStyle;rounded=0;orthogonalLoop=1;jettySize=auto;html=1;" edge="1" parent="1" source="v-BfbfLoqjQdix0PqbCj-19" target="v-BfbfLoqjQdix0PqbCj-36">
          <mxGeometry relative="1" as="geometry" />
        </mxCell>
        <mxCell id="v-BfbfLoqjQdix0PqbCj-19" value="Choice=4" style="rhombus;whiteSpace=wrap;html=1;" vertex="1" parent="1">
          <mxGeometry x="140" y="650" width="80" height="80" as="geometry" />
        </mxCell>
        <mxCell id="v-BfbfLoqjQdix0PqbCj-24" value="" style="edgeStyle=orthogonalEdgeStyle;rounded=0;orthogonalLoop=1;jettySize=auto;html=1;" edge="1" parent="1" source="v-BfbfLoqjQdix0PqbCj-21" target="v-BfbfLoqjQdix0PqbCj-23">
          <mxGeometry relative="1" as="geometry" />
        </mxCell>
        <mxCell id="v-BfbfLoqjQdix0PqbCj-35" value="" style="edgeStyle=orthogonalEdgeStyle;rounded=0;orthogonalLoop=1;jettySize=auto;html=1;" edge="1" parent="1" source="v-BfbfLoqjQdix0PqbCj-21" target="v-BfbfLoqjQdix0PqbCj-34">
          <mxGeometry relative="1" as="geometry" />
        </mxCell>
        <mxCell id="v-BfbfLoqjQdix0PqbCj-21" value="Choice=5" style="rhombus;whiteSpace=wrap;html=1;" vertex="1" parent="1">
          <mxGeometry x="140" y="760" width="80" height="80" as="geometry" />
        </mxCell>
        <mxCell id="v-BfbfLoqjQdix0PqbCj-28" value="" style="edgeStyle=orthogonalEdgeStyle;rounded=0;orthogonalLoop=1;jettySize=auto;html=1;" edge="1" parent="1" source="v-BfbfLoqjQdix0PqbCj-23" target="v-BfbfLoqjQdix0PqbCj-27">
          <mxGeometry relative="1" as="geometry" />
        </mxCell>
        <mxCell id="v-BfbfLoqjQdix0PqbCj-33" value="" style="edgeStyle=orthogonalEdgeStyle;rounded=0;orthogonalLoop=1;jettySize=auto;html=1;" edge="1" parent="1" source="v-BfbfLoqjQdix0PqbCj-23" target="v-BfbfLoqjQdix0PqbCj-32">
          <mxGeometry relative="1" as="geometry" />
        </mxCell>
        <mxCell id="v-BfbfLoqjQdix0PqbCj-23" value="Choice=6" style="rhombus;whiteSpace=wrap;html=1;" vertex="1" parent="1">
          <mxGeometry x="140" y="860" width="80" height="80" as="geometry" />
        </mxCell>
        <mxCell id="v-BfbfLoqjQdix0PqbCj-30" value="" style="edgeStyle=orthogonalEdgeStyle;rounded=0;orthogonalLoop=1;jettySize=auto;html=1;" edge="1" parent="1" source="v-BfbfLoqjQdix0PqbCj-27" target="v-BfbfLoqjQdix0PqbCj-29">
          <mxGeometry relative="1" as="geometry" />
        </mxCell>
        <mxCell id="v-BfbfLoqjQdix0PqbCj-27" value="Choice&amp;gt;6" style="rhombus;whiteSpace=wrap;html=1;" vertex="1" parent="1">
          <mxGeometry x="140" y="960" width="80" height="80" as="geometry" />
        </mxCell>
        <mxCell id="v-BfbfLoqjQdix0PqbCj-44" style="edgeStyle=orthogonalEdgeStyle;rounded=0;orthogonalLoop=1;jettySize=auto;html=1;exitX=1;exitY=0.5;exitDx=0;exitDy=0;entryX=1;entryY=0.5;entryDx=0;entryDy=0;" edge="1" parent="1" source="v-BfbfLoqjQdix0PqbCj-29" target="v-BfbfLoqjQdix0PqbCj-2">
          <mxGeometry relative="1" as="geometry">
            <Array as="points">
              <mxPoint x="440" y="1000" />
              <mxPoint x="440" y="190" />
            </Array>
          </mxGeometry>
        </mxCell>
        <mxCell id="v-BfbfLoqjQdix0PqbCj-29" value="Invalid Input" style="whiteSpace=wrap;html=1;" vertex="1" parent="1">
          <mxGeometry x="280" y="970" width="120" height="60" as="geometry" />
        </mxCell>
        <mxCell id="v-BfbfLoqjQdix0PqbCj-32" value="End" style="ellipse;whiteSpace=wrap;html=1;" vertex="1" parent="1">
          <mxGeometry x="280" y="860" width="120" height="80" as="geometry" />
        </mxCell>
        <mxCell id="v-BfbfLoqjQdix0PqbCj-45" style="edgeStyle=orthogonalEdgeStyle;rounded=0;orthogonalLoop=1;jettySize=auto;html=1;exitX=1;exitY=0.5;exitDx=0;exitDy=0;entryX=1;entryY=0.5;entryDx=0;entryDy=0;" edge="1" parent="1" source="v-BfbfLoqjQdix0PqbCj-34" target="v-BfbfLoqjQdix0PqbCj-2">
          <mxGeometry relative="1" as="geometry">
            <Array as="points">
              <mxPoint x="520" y="800" />
              <mxPoint x="520" y="190" />
            </Array>
          </mxGeometry>
        </mxCell>
        <mxCell id="v-BfbfLoqjQdix0PqbCj-34" value="Display Record" style="whiteSpace=wrap;html=1;" vertex="1" parent="1">
          <mxGeometry x="280" y="770" width="120" height="60" as="geometry" />
        </mxCell>
        <mxCell id="v-BfbfLoqjQdix0PqbCj-47" style="edgeStyle=orthogonalEdgeStyle;rounded=0;orthogonalLoop=1;jettySize=auto;html=1;exitX=1;exitY=0.5;exitDx=0;exitDy=0;entryX=1;entryY=0.5;entryDx=0;entryDy=0;" edge="1" parent="1" source="v-BfbfLoqjQdix0PqbCj-36" target="v-BfbfLoqjQdix0PqbCj-2">
          <mxGeometry relative="1" as="geometry">
            <Array as="points">
              <mxPoint x="540" y="690" />
              <mxPoint x="540" y="190" />
            </Array>
          </mxGeometry>
        </mxCell>
        <mxCell id="v-BfbfLoqjQdix0PqbCj-36" value="Highest and Lowest Grade" style="whiteSpace=wrap;html=1;" vertex="1" parent="1">
          <mxGeometry x="280" y="660" width="120" height="60" as="geometry" />
        </mxCell>
        <mxCell id="v-BfbfLoqjQdix0PqbCj-48" style="edgeStyle=orthogonalEdgeStyle;rounded=0;orthogonalLoop=1;jettySize=auto;html=1;exitX=1;exitY=0.5;exitDx=0;exitDy=0;entryX=1;entryY=0.5;entryDx=0;entryDy=0;" edge="1" parent="1" source="v-BfbfLoqjQdix0PqbCj-38" target="v-BfbfLoqjQdix0PqbCj-2">
          <mxGeometry relative="1" as="geometry">
            <Array as="points">
              <mxPoint x="460" y="590" />
              <mxPoint x="460" y="190" />
            </Array>
          </mxGeometry>
        </mxCell>
        <mxCell id="v-BfbfLoqjQdix0PqbCj-38" value="Calculate Grade" style="whiteSpace=wrap;html=1;" vertex="1" parent="1">
          <mxGeometry x="280" y="560" width="120" height="60" as="geometry" />
        </mxCell>
        <mxCell id="v-BfbfLoqjQdix0PqbCj-49" style="edgeStyle=orthogonalEdgeStyle;rounded=0;orthogonalLoop=1;jettySize=auto;html=1;exitX=1;exitY=0.5;exitDx=0;exitDy=0;entryX=1;entryY=0.5;entryDx=0;entryDy=0;" edge="1" parent="1" source="v-BfbfLoqjQdix0PqbCj-40">
          <mxGeometry relative="1" as="geometry">
            <mxPoint x="410" y="490" as="sourcePoint" />
            <mxPoint x="250.0000000000001" y="190" as="targetPoint" />
            <Array as="points">
              <mxPoint x="480" y="490" />
              <mxPoint x="480" y="190" />
            </Array>
          </mxGeometry>
        </mxCell>
        <mxCell id="v-BfbfLoqjQdix0PqbCj-40" value="Record Grade" style="whiteSpace=wrap;html=1;" vertex="1" parent="1">
          <mxGeometry x="280" y="460" width="120" height="60" as="geometry" />
        </mxCell>
        <mxCell id="v-BfbfLoqjQdix0PqbCj-50" style="edgeStyle=orthogonalEdgeStyle;rounded=0;orthogonalLoop=1;jettySize=auto;html=1;exitX=1;exitY=0.5;exitDx=0;exitDy=0;entryX=1;entryY=0.5;entryDx=0;entryDy=0;" edge="1" parent="1" source="v-BfbfLoqjQdix0PqbCj-42" target="v-BfbfLoqjQdix0PqbCj-2">
          <mxGeometry relative="1" as="geometry">
            <Array as="points">
              <mxPoint x="500" y="380" />
              <mxPoint x="500" y="190" />
            </Array>
          </mxGeometry>
        </mxCell>
        <mxCell id="v-BfbfLoqjQdix0PqbCj-42" value="Add Student" style="whiteSpace=wrap;html=1;" vertex="1" parent="1">
          <mxGeometry x="280" y="350" width="120" height="60" as="geometry" />
        </mxCell>
      </root>
    </mxGraphModel>
  </diagram>
</mxfile>
